<?xml version="1.0" standalone="no"?>
<!DOCTYPE svg PUBLIC "-//W3C//DTD SVG 20010904//EN"
 "http://www.w3.org/TR/2001/REC-SVG-20010904/DTD/svg10.dtd">
<svg version="1.0" xmlns="http://www.w3.org/2000/svg"
 width="1136.000000pt" height="1136.000000pt" viewBox="0 0 1136.000000 1136.000000"
 preserveAspectRatio="xMidYMid meet">
<metadata>
Created by potrace 1.14, written by Peter Selinger 2001-2017
</metadata>
<g transform="translate(0.000000,1136.000000) scale(0.100000,-0.100000)"
fill="#000000" stroke="none">
<path d="M2735 9468 c-24 -66 -21 -57 -30 -95 -4 -18 -11 -33 -15 -33 -3 0 -7
-6 -8 -12 -1 -15 -47 -149 -87 -253 -14 -38 -28 -77 -30 -85 -6 -20 -76 -215
-115 -320 -17 -47 -32 -89 -33 -95 -2 -5 -29 -82 -61 -170 -32 -88 -72 -198
-88 -245 -17 -47 -34 -94 -38 -105 -5 -11 -12 -31 -15 -45 -4 -14 -13 -38 -20
-55 -7 -16 -22 -57 -33 -90 -11 -34 -25 -72 -30 -85 -14 -35 -25 -63 -27 -75
-2 -5 -26 -73 -55 -150 -28 -77 -53 -147 -55 -155 -5 -18 -52 -148 -61 -170
-4 -8 -8 -19 -10 -25 -3 -12 -92 -260 -134 -375 -17 -47 -33 -89 -34 -95 -2
-5 -6 -17 -9 -25 -11 -26 -108 -304 -110 -315 -1 -5 -4 -12 -7 -15 -3 -3 -18
-41 -33 -85 -54 -160 -98 -279 -109 -292 -6 -7 -8 -13 -4 -13 3 0 -10 -44 -30
-97 -20 -54 -48 -134 -64 -178 -27 -76 -87 -244 -170 -475 -21 -58 -43 -121
-50 -140 -6 -19 -15 -44 -20 -55 -5 -11 -20 -56 -35 -100 -15 -44 -31 -88 -37
-99 -5 -10 -11 -26 -13 -35 -4 -18 -71 -206 -84 -236 -5 -11 -26 -69 -47 -130
-20 -60 -42 -116 -47 -123 -5 -7 -7 -15 -4 -19 4 -3 1 -15 -5 -27 -7 -11 -13
-23 -14 -26 0 -3 -3 -12 -7 -20 -16 -42 -49 -136 -51 -145 -2 -11 -22 -67 -37
-100 -4 -11 -34 -92 -64 -180 -31 -88 -74 -207 -95 -265 -76 -208 -82 -225
-84 -235 -2 -11 -42 -120 -53 -145 -4 -8 -8 -19 -8 -25 -1 -5 -8 -23 -14 -40
-7 -16 -14 -34 -15 -40 -2 -5 -6 -17 -9 -25 -4 -8 -29 -78 -56 -155 -28 -77
-68 -192 -91 -255 -23 -63 -64 -178 -91 -255 -27 -77 -52 -147 -56 -155 -3 -8
-7 -19 -9 -25 -6 -20 -43 -122 -74 -205 -18 -47 -36 -97 -40 -112 l-9 -28 977
0 977 0 28 83 c16 45 30 89 31 97 2 8 6 22 9 30 7 16 113 330 116 342 1 4 4
13 6 20 22 64 228 683 230 692 1 6 5 18 8 26 4 8 98 290 210 625 l203 610 517
0 c453 0 517 2 518 15 1 23 1 1191 0 1225 l-1 30 -305 -2 c-201 -1 -305 2
-305 8 0 6 5 19 11 30 6 11 12 28 14 37 2 9 11 37 20 62 9 25 18 52 20 60 2 8
16 49 30 90 14 41 28 82 30 90 2 8 33 103 70 210 37 107 71 211 77 230 5 19
30 94 55 165 24 72 46 137 48 145 2 8 49 150 105 315 56 165 107 320 114 345
9 34 12 301 11 1070 l0 1025 -535 3 -535 2 -20 -52z"/>
<path d="M4460 9508 c0 -11 1 -939 1 -978 0 -8 0 -152 0 -320 0 -168 0 -314 0
-325 0 -24 0 -1105 0 -1120 0 -14 0 -457 0 -475 0 -8 0 -116 0 -240 0 -124 0
-232 0 -240 0 -11 0 -1019 0 -1120 0 -64 0 -629 0 -645 0 -24 0 -1105 0 -1120
0 -14 0 -457 0 -475 0 -8 0 -116 0 -240 0 -124 0 -232 1 -240 0 -8 -1 -19 -2
-25 -1 -5 -2 -32 -1 -58 l1 -48 1603 5 c1387 3 1712 6 1712 15 0 1 27 4 60 6
33 3 76 7 95 10 19 2 58 7 85 10 28 3 61 7 75 10 14 3 40 7 58 10 40 6 80 13
112 20 14 3 50 10 80 16 30 5 66 12 80 15 14 3 57 14 95 25 39 11 79 21 90 23
11 2 20 4 20 5 0 2 9 4 20 6 28 6 266 83 290 94 26 13 144 57 173 66 12 3 22
10 22 14 0 4 6 8 13 8 18 0 229 104 346 170 53 31 112 64 131 75 19 11 42 26
51 34 8 8 19 14 22 14 13 0 222 153 327 239 126 103 316 292 426 424 89 106
244 320 244 335 0 6 4 12 9 14 4 1 30 40 56 86 27 45 52 85 57 88 4 3 8 14 8
24 0 10 4 20 8 22 13 5 145 278 192 398 94 234 176 521 215 745 3 17 8 44 11
60 4 17 8 46 9 65 2 19 4 35 5 35 1 0 3 14 5 30 2 17 6 50 10 75 3 25 8 70 10
100 2 30 7 98 11 150 10 121 10 459 0 615 -7 117 -8 133 -20 225 -3 25 -8 63
-10 85 -2 22 -6 51 -9 65 -3 14 -11 59 -17 100 -7 41 -14 84 -17 95 -5 25 -11
53 -18 85 -4 14 -8 34 -10 45 -11 50 -15 65 -35 135 -40 145 -94 305 -104 312
-6 4 -8 8 -4 8 6 0 -51 150 -86 225 -39 82 -119 238 -146 284 -16 29 -30 56
-30 61 0 6 -4 10 -8 10 -5 0 -16 17 -26 37 -9 20 -40 70 -67 110 -27 40 -49
77 -49 82 0 5 -4 11 -9 13 -4 2 -26 28 -47 59 -38 55 -54 76 -163 208 -115
139 -403 411 -521 490 -19 13 -39 29 -45 35 -15 17 -202 140 -296 196 -74 43
-342 179 -424 214 -16 7 -41 18 -55 24 -32 15 -82 34 -95 38 -5 1 -21 6 -35
12 -14 5 -29 11 -35 12 -5 2 -39 14 -75 27 -36 13 -74 26 -85 28 -12 3 -45 13
-75 23 -30 11 -57 19 -60 20 -3 0 -23 4 -45 10 -101 25 -182 44 -205 48 -14 2
-36 7 -50 10 -14 3 -36 8 -50 10 -14 2 -34 5 -46 8 -12 2 -45 7 -75 11 -30 4
-56 8 -59 10 -4 3 -69 11 -160 20 -111 12 -161 17 -195 22 -22 3 -768 8 -1657
10 -1326 3 -1618 2 -1618 -9z m2940 -1592 c102 -5 194 -14 235 -23 17 -3 44
-7 60 -9 17 -1 55 -8 85 -14 30 -6 66 -14 80 -16 97 -19 379 -113 406 -136 7
-5 20 -10 30 -12 53 -11 324 -180 390 -244 8 -7 14 -11 14 -8 0 13 215 -210
269 -279 34 -44 70 -91 81 -105 11 -14 20 -30 20 -37 0 -6 4 -13 8 -15 12 -5
83 -132 125 -225 43 -96 98 -243 90 -243 -3 0 -1 -6 4 -12 9 -12 15 -29 29
-90 2 -10 6 -26 8 -35 10 -42 28 -120 32 -138 4 -20 6 -32 19 -130 4 -27 9
-59 11 -70 25 -130 25 -593 -1 -799 -4 -40 -10 -77 -21 -143 -4 -21 -8 -47
-10 -58 -1 -11 -3 -20 -4 -20 -1 0 -4 -11 -6 -24 -39 -213 -148 -485 -272
-681 -94 -148 -252 -327 -377 -425 -27 -22 -52 -42 -55 -45 -47 -50 -342 -213
-455 -251 -22 -8 -43 -18 -47 -24 -4 -5 -8 -7 -8 -3 0 4 -26 -2 -57 -13 -53
-18 -190 -56 -238 -65 -11 -2 -33 -7 -50 -11 -16 -3 -37 -7 -45 -8 -8 -1 -34
-5 -58 -9 -70 -11 -139 -19 -292 -31 -47 -3 -540 -6 -955 -5 l-130 0 0 2223
c0 1222 3 2227 7 2232 6 10 901 11 1078 1z"/>
</g>
</svg>
