<svg viewBox="0 0 44 64" fill="none" xmlns="http://www.w3.org/2000/svg">
<g clip-path="url(#clip0_158_6)">
<path d="M12.05 40.998C10.986 44.498 11.742 49.366 14.26 51.66V51.576L14.344 51.352C14.652 49.87 15.856 48.946 17.396 49.002C18.822 49.03 19.636 49.786 19.83 51.436C19.914 52.052 19.914 52.668 19.942 53.312V53.508C19.942 54.908 20.334 56.25 21.118 57.426C21.818 58.546 22.798 59.412 24.112 60L24.056 59.888L24 59.664C23.02 56.726 23.72 54.684 26.294 52.948L27.078 52.416L28.814 51.27C29.8106 50.5725 30.646 49.6694 31.2639 48.6216C31.8818 47.5738 32.2679 46.4057 32.396 45.196C32.536 44.132 32.396 43.096 32.088 42.09L31.668 42.37C27.778 44.44 23.328 45.17 19.018 44.33C16.416 43.936 13.898 43.21 12.022 41.026L12.05 40.998Z" fill="url(#paint0_linear_158_6)"/>
<path d="M-0.149902 40.382C-0.149902 40.382 7.3221 36.742 14.8221 36.742L20.5021 19.224C20.6981 18.384 21.3141 17.824 22.0141 17.824C22.7141 17.824 23.3021 18.384 23.5261 19.252L29.1781 36.744C38.0781 36.744 44.1521 40.384 44.1521 40.384L31.4181 5.68C31.0821 4.644 30.4381 4 29.6261 4H14.4021C13.5901 4 13.0021 4.644 12.6101 5.68L-0.149902 40.382Z" fill="white"/>
</g>
<defs>
<linearGradient id="paint0_linear_158_6" x1="11.5745" y1="59.9718" x2="35.9783" y2="48.4696" gradientUnits="userSpaceOnUse">
<stop stop-color="#D83333"/>
<stop offset="1" stop-color="#F041FF"/>
</linearGradient>
<clipPath id="clip0_158_6">
<rect width="44" height="64" fill="white"/>
</clipPath>
</defs>
</svg>
