<svg width="44" height="64" viewBox="0 0 44 64" fill="none" xmlns="http://www.w3.org/2000/svg">
<g clip-path="url(#clip0_116_4157)">
<path d="M11.3354 63.9998C17.2222 63.9998 22 59.2212 22 53.3332V42.6665H11.3354C5.44861 42.6665 0.670898 47.4452 0.670898 53.3332C0.670898 59.2212 5.44861 63.9998 11.3354 63.9998Z" fill="#0ACF83"/>
<path d="M0.670898 32.0002C0.670898 26.1122 5.44861 21.3335 11.3354 21.3335H22V42.6668H11.3354C5.44861 42.6668 0.670898 37.8882 0.670898 32.0002Z" fill="#A259FF"/>
<path d="M0.671082 10.6667C0.671082 4.77867 5.44879 0 11.3356 0H22.0002V21.3333H11.3356C5.44879 21.3333 0.671082 16.5547 0.671082 10.6667Z" fill="#F24E1E"/>
<path d="M22 0H32.6645C38.5514 0 43.3291 4.77867 43.3291 10.6667C43.3291 16.5547 38.5514 21.3333 32.6645 21.3333H22V0Z" fill="#FF7262"/>
<path d="M43.3291 32.0002C43.3291 37.8882 38.5514 42.6668 32.6645 42.6668C26.7777 42.6668 22 37.8882 22 32.0002C22 26.1122 26.7777 21.3335 32.6645 21.3335C38.5514 21.3335 43.3291 26.1122 43.3291 32.0002Z" fill="#1ABCFE"/>
</g>
<defs>
<clipPath id="clip0_116_4157">
<rect width="42.6667" height="64" fill="white" transform="translate(0.666656)"/>
</clipPath>
</defs>
</svg>
