<svg width="64" height="64" viewBox="0 0 64 64" fill="none" xmlns="http://www.w3.org/2000/svg">
<g clip-path="url(#clip0_116_4149)">
<path d="M32 0C14.327 0 0 14.3267 0 32C0 49.6732 14.327 64 32 64C49.6732 64 64 49.6732 64 32C64 14.3267 49.6732 0 32 0ZM6.876 32.3335L31.6663 57.124C18.0537 56.9465 7.05325 45.9465 6.876 32.3335ZM37.624 56.496L7.504 26.376C10.0585 15.206 20.0557 6.87175 32 6.87175C40.3493 6.87175 47.7463 10.945 52.3158 17.2118L48.8365 20.2815C45.13 14.966 38.9715 11.4873 32 11.4873C23.1237 11.4873 15.565 17.1252 12.7078 25.0155L38.985 51.2923C45.3662 48.9815 50.274 43.5947 51.9175 36.923H41.026V32H57.1285C57.1285 43.9445 48.7945 53.9417 37.6242 56.4958" fill="#744C9E"/>
</g>
<defs>
<clipPath id="clip0_116_4149">
<rect width="64" height="64" fill="white"/>
</clipPath>
</defs>
</svg>
