<svg width="57" height="64" viewBox="0 0 57 64" fill="none" xmlns="http://www.w3.org/2000/svg">
<g clip-path="url(#clip0_116_4118)">
<path d="M5.06066 57.6154L-0.0621033 -0.0625H56.2572L51.1344 57.5842L28.051 63.9998" fill="#E44D26"/>
<path d="M28.0976 59.0947V4.67139H51.1189L46.7258 53.8782" fill="#F16529"/>
<path d="M10.4008 11.7256H28.0976V18.7952H18.1315L18.7835 26.0361H28.0976V33.0901H12.3257L10.4008 11.7256ZM12.6361 36.6404H19.7149L20.2116 42.293L28.0976 44.4107V51.7918L13.6296 47.7431" fill="#EBEBEB"/>
<path d="M45.7323 11.7256H28.0665V18.7952H45.0803L45.7323 11.7256ZM44.4438 26.036H28.0665V33.1056H36.7597L35.937 42.293L28.0665 44.4107V51.7606L42.5034 47.7431" fill="white"/>
</g>
<defs>
<clipPath id="clip0_116_4118">
<rect width="56.1951" height="64" fill="white"/>
</clipPath>
</defs>
</svg>
