<svg width="94" height="64" viewBox="0 0 94 64" fill="none" xmlns="http://www.w3.org/2000/svg">
<g clip-path="url(#clip0_116_4098)">
<path d="M28.0386 42.232L30.892 51.4904C31.5331 53.5925 31.8004 55.0599 31.6933 55.8963C33.2539 51.7167 34.3443 47.1618 34.9647 42.232H38.3957C36.9204 50.2579 34.9746 56.0901 32.5593 59.7284C30.6774 62.5321 28.6158 63.9339 26.3709 63.9339C25.7723 63.9339 25.0344 63.7531 24.1588 63.394V61.4593C24.5866 61.522 25.0885 61.5556 25.6658 61.5556C26.7131 61.5556 27.5572 61.2653 28.1994 60.686C28.9683 59.9802 29.3532 59.1869 29.3532 58.3076C29.3532 57.7072 29.053 56.475 28.4554 54.6111L24.4797 42.232H28.0386ZM6.20026 36.5415L11.4266 52.4876H11.4589L16.7173 36.5415H21.0136C21.9543 44.4496 22.51 51.6853 22.6805 58.2439H19.0584C18.9309 52.1129 18.5779 46.3478 18.0006 40.9474H17.9691L12.4534 58.2439H9.69495L4.21259 40.9474H4.18032C3.77358 46.1338 3.51758 51.8989 3.41085 58.2439H0.107788C0.321244 50.5272 0.855433 43.2938 1.71036 36.5415H6.20026Z" fill="#00758F"/>
<path d="M64.7493 36.2194C70.3712 36.2194 73.1822 39.8111 73.1822 46.991C73.1822 50.8927 72.3368 53.8398 70.6477 55.8307C70.3433 56.1946 70.0068 56.5089 69.6525 56.8001L73.631 58.7672L73.6271 58.767L72.2145 61.2064L67.0335 58.1833C66.1747 58.4377 65.2297 58.5648 64.2 58.5648C61.4396 58.5648 59.3777 57.7603 58.0144 56.1533C56.518 54.3756 55.7702 51.577 55.7702 47.7623C55.7702 43.8827 56.6141 40.9468 58.3038 38.9533C59.8427 37.1297 61.9916 36.2194 64.7493 36.2194ZM47.5334 36.2508C49.5428 36.2508 51.3698 36.7885 53.0154 37.8599L52.1796 39.7226C50.7714 39.124 49.383 38.8234 48.0139 38.8234C46.903 38.8234 46.047 39.0908 45.4502 39.6288C44.8502 40.1621 44.4791 40.8483 44.4791 41.6849C44.4791 42.9704 45.3949 44.0852 47.0858 45.027C47.6398 45.3298 48.1918 45.6362 48.7419 45.946L48.8681 46.0169L48.9314 46.0525L49.0577 46.1235L49.1208 46.159L49.247 46.2302C50.527 46.9518 51.7314 47.6406 51.7314 47.6406C53.4222 48.8408 54.265 50.1204 54.265 52.228C54.265 54.0686 53.5905 55.5795 52.246 56.7618C50.9005 57.9387 49.0929 58.5288 46.8293 58.5288C44.7121 58.5288 42.6603 57.8496 40.6728 56.5025L41.6025 54.6382C43.3129 55.4955 44.8607 55.9237 46.2505 55.9237C47.554 55.9237 48.5743 55.6327 49.3124 55.058C50.0491 54.479 50.4905 53.6716 50.4905 52.6478C50.4905 51.3592 49.5941 50.2576 47.9497 49.3336C47.435 49.0492 46.9219 48.7621 46.4102 48.4722L46.2843 48.4009C46.0528 48.2701 45.8197 48.1377 45.5914 48.0081L45.4677 47.9377C44.3573 47.3061 43.3973 46.7543 43.3973 46.7543C41.7535 45.5519 40.9292 44.2618 40.9292 42.136C40.9292 40.378 41.5439 38.9569 42.7714 37.8759C44.0019 36.7925 45.5894 36.2508 47.5334 36.2508ZM79.7893 36.5413V55.574H86.618V58.2437H76.3259V36.5414L79.7893 36.5413ZM90.4125 55.5823V56.0334H89.6618V58.2413H89.0878V56.0334H88.3079V55.5823H90.4125ZM91.7989 55.5823L92.5198 57.3948L93.182 55.5823H93.9956V58.2413H93.4546V56.2177L92.7009 58.2413H92.3109L91.5559 56.2177H91.5269V58.2413H91.0151V55.5823H91.7989ZM64.3957 38.8883C61.0827 38.8883 59.4253 41.6226 59.4253 47.0873C59.4253 50.2176 59.8645 52.4875 60.7413 53.9023C61.5533 55.2117 62.825 55.865 64.5567 55.865C67.8697 55.865 69.5269 53.1096 69.5269 47.6012C69.5269 44.5147 69.0877 42.2642 68.212 40.8487C67.3991 39.5423 66.1279 38.8883 64.3959 38.8883" fill="#F29111"/>
<path d="M55.7123 1.34475C56.8113 -1.35572 60.654 0.689342 62.1453 1.63265C62.5107 1.86867 62.93 2.36728 63.349 2.55158C64.0027 2.57725 64.6559 2.62841 65.3108 2.65574C66.5391 2.94438 67.6896 3.18021 68.6575 3.73145C73.1555 6.38039 76.0835 9.07976 78.7783 13.5385C79.3541 14.4829 79.6418 15.5049 80.1122 16.5269C80.765 18.0502 81.4986 19.6493 82.2563 21.0898C82.5956 21.7727 82.858 22.532 83.3291 23.1088C83.513 23.3725 84.0355 23.4502 84.3478 23.6078C85.2111 24.0547 86.2571 24.3939 87.0691 24.9184C88.5855 25.8639 90.0516 26.9906 91.3845 28.1441C91.8812 28.5893 92.2198 29.2196 92.6931 29.6905V29.9282C92.2729 30.0571 91.8543 30.1891 91.4353 30.2949C90.52 30.53 89.7093 30.4769 88.8213 30.7121C88.2727 30.8713 87.5914 31.0813 87.016 31.1346L87.0691 31.1882C87.4077 32.1555 89.2393 32.9422 90.077 33.5208C91.0944 34.2551 92.0371 35.1456 92.7959 36.1683C93.058 36.4292 93.32 36.6667 93.5808 36.9269C93.7631 37.1906 93.8144 37.5317 93.9989 37.7668V37.8464C93.7946 37.7743 93.6477 37.6368 93.5086 37.493L93.4255 37.4063C93.3424 37.3201 93.2586 37.2354 93.1631 37.1655C92.5858 36.7712 92.0125 36.2996 91.4353 35.933C90.4428 35.3033 89.2917 34.9378 88.2727 34.3057C87.6965 33.9387 87.1473 33.5208 86.598 33.1009C86.1002 32.7328 85.5518 32.0261 85.239 31.5016C85.0547 31.2118 85.0294 30.8713 84.8189 30.6617C84.8565 30.3116 85.1772 30.2076 85.5009 30.1222L85.5753 30.1026C85.687 30.0736 85.7963 30.0446 85.8916 30.0063C87.2512 29.429 88.8721 29.2196 90.9653 29.272C90.8864 28.7465 89.5785 28.0916 89.161 27.7769C88.3229 27.1729 87.4355 26.5426 86.5465 25.9928C86.0754 25.7049 85.2636 25.4948 84.7417 25.2595C84.0355 24.9708 82.4659 24.6824 82.0746 24.1326C81.4098 23.2659 80.9323 22.2322 80.4687 21.188L80.3425 20.9031C80.3005 20.8081 80.2583 20.7132 80.216 20.6183C79.6681 19.3608 78.9873 18.0498 78.4381 16.7623C78.1509 16.1342 78.0191 15.583 77.7046 14.9806C75.7961 11.284 72.9715 8.18908 69.5469 6.01253C68.4215 5.30431 67.1666 4.64891 65.7813 4.20347C64.9963 3.96636 64.0541 4.09748 63.2177 3.91557H62.6672C62.1973 3.78316 61.8051 3.2851 61.4385 3.0225C60.6289 2.47272 59.818 2.10358 58.8497 1.71133C58.5105 1.55398 57.5417 1.18759 57.2035 1.47605C56.9941 1.52868 56.8879 1.60771 56.8364 1.81787C56.6281 2.13145 56.8113 2.60384 56.9409 2.89303C57.3337 3.73108 57.8824 4.22915 58.3805 4.93737C58.8235 5.56545 59.3738 6.27366 59.688 6.95658C60.3657 8.42454 60.6813 10.0509 61.3094 11.5187C61.5423 12.0707 61.9107 12.6988 62.2498 13.1967C62.5372 13.5919 63.0596 13.8776 63.2177 14.3778C63.5327 14.9023 62.746 16.6329 62.5639 17.1825C61.8827 19.333 62.0147 22.3223 62.7992 24.1863L62.841 24.2846L62.8828 24.3842C63.1693 25.0669 63.4759 25.8021 64.2375 25.993C64.2899 25.9409 64.2375 25.9682 64.3414 25.9409C64.5257 24.4981 64.5776 23.1086 65.075 21.9797C65.3623 21.2739 65.9361 20.7749 66.3295 20.1987C66.5917 20.3557 66.5917 20.829 66.7479 21.1422C67.0883 21.9546 67.4538 22.8453 67.8734 23.66C68.7345 25.338 69.7035 26.9647 70.8014 28.4325C71.1691 28.9568 71.6908 29.5339 72.1614 30.0061C72.371 30.1889 72.6057 30.2946 72.7632 30.5299H72.8146V30.6091C72.0301 30.3199 71.5327 29.5082 70.907 29.0344C69.729 28.1437 68.3182 26.8061 67.5062 25.5226C67.1666 24.7858 66.7995 24.0796 66.4334 23.3464V23.2934C66.277 23.5029 66.3295 23.7108 66.2512 24.0277C65.9115 25.338 66.173 26.8327 64.9963 27.304C63.6624 27.856 62.6674 26.4133 62.2498 25.7577C60.9155 23.5817 60.55 19.9108 61.491 16.9475C61.7 16.2916 61.7284 15.5049 62.0934 14.9811C62.0145 14.5077 61.6496 14.3782 61.4385 14.0881C61.0725 13.5922 60.7591 13.0146 60.4725 12.4639C59.9219 11.3882 59.5302 10.1028 59.1123 8.94919C58.9286 8.47809 58.8759 8.00515 58.6927 7.55917C58.3803 6.87845 57.8043 6.19554 57.3599 5.59332C56.7583 4.72776 55.0059 3.05019 55.7123 1.34475ZM64.2894 6.48217C64.3592 6.55222 64.4436 6.61347 64.5309 6.6738L64.6361 6.74605C64.7764 6.84325 64.9123 6.94557 64.9956 7.08494C65.1276 7.26942 65.1522 7.45152 65.3102 7.63637C65.3102 8.26665 65.1276 8.68568 64.7588 8.94681C64.7588 8.94681 64.7337 8.97432 64.7078 8.99999C64.4988 8.57986 64.3156 8.16194 64.1051 7.74218C63.8458 7.37578 63.4792 7.08513 63.2679 6.66647H63.2171V6.61384C63.5327 6.5359 63.8458 6.48217 64.2894 6.48217Z" fill="#00758F"/>
</g>
<defs>
<clipPath id="clip0_116_4098">
<rect width="93.8933" height="64" fill="white" transform="translate(0.106689)"/>
</clipPath>
</defs>
</svg>
