<svg width="64" height="64" viewBox="0 0 64 64" fill="none" xmlns="http://www.w3.org/2000/svg">
<g clip-path="url(#clip0_116_4164)">
<path d="M46.0583 22.0983L46.0349 22.0884C46.0218 22.0833 46.0083 22.0785 45.9965 22.0667C45.9772 22.0462 45.963 22.0215 45.9548 21.9946C45.9467 21.9676 45.945 21.9392 45.9498 21.9115L47.24 14.0232L53.2909 20.0753L46.9981 22.7527C46.9806 22.7597 46.9619 22.7631 46.9431 22.7627H46.9181C46.9057 22.7547 46.8944 22.7453 46.8845 22.7345C46.6503 22.4737 46.3703 22.2581 46.0583 22.0983ZM54.8345 21.6177L61.3043 28.0871C62.648 29.4327 63.3206 30.1034 63.566 30.8813C63.6025 30.9965 63.6326 31.1117 63.656 31.2301L48.1949 24.6823L48.1699 24.6721C48.1082 24.6471 48.0362 24.6186 48.0362 24.5553C48.0362 24.4919 48.1098 24.4618 48.1715 24.4369L48.1914 24.4286L54.8345 21.6177ZM63.3923 33.3066C63.0585 33.9341 62.4076 34.5853 61.3059 35.6884L54.0118 42.9808L44.5779 41.0164L44.5277 41.0064C44.4442 40.993 44.3559 40.978 44.3559 40.9028C44.32 40.5136 44.2043 40.136 44.0162 39.7935C43.8281 39.451 43.5715 39.1508 43.2624 38.9117C43.224 38.8733 43.2343 38.8132 43.2458 38.7581C43.2458 38.7498 43.2458 38.7415 43.2493 38.7348L45.0234 27.842L45.0301 27.8052C45.0403 27.7217 45.0551 27.625 45.1303 27.625C45.5105 27.5778 45.8776 27.4552 46.21 27.2647C46.5424 27.0741 46.8336 26.8192 47.0666 26.515C47.0816 26.4983 47.0915 26.4798 47.1117 26.4698C47.1651 26.4449 47.2285 26.4698 47.2835 26.4932L63.3907 33.3066H63.3923ZM52.3344 44.6583L40.3399 56.6528L42.393 44.0343L42.3962 44.0173C42.3979 44.0009 42.4013 43.9847 42.4064 43.969C42.4231 43.929 42.4663 43.9123 42.5082 43.8957L42.528 43.8874C42.9776 43.6955 43.3752 43.3997 43.6883 43.0243C43.7283 42.9776 43.7767 42.9325 43.8384 42.9242C43.8544 42.9216 43.8707 42.9216 43.8867 42.9242L52.3325 44.6602L52.3344 44.6583ZM37.801 59.1917L36.449 60.5436L21.5019 38.9415L21.4852 38.9181C21.4622 38.8864 21.4372 38.8548 21.442 38.818C21.4436 38.7914 21.4603 38.768 21.4788 38.7479L21.4955 38.7264C21.5403 38.6596 21.5787 38.5927 21.6206 38.521L21.6539 38.4624L21.659 38.4576C21.6823 38.4176 21.7038 38.3792 21.7441 38.3575C21.7793 38.3408 21.8273 38.3476 21.8657 38.3559L38.4253 41.7709C38.4717 41.778 38.5155 41.7969 38.5524 41.826C38.5741 41.8477 38.5789 41.8711 38.584 41.8976C38.6995 42.3347 38.9145 42.7391 39.2122 43.0793C39.5098 43.4195 39.8821 43.6863 40.2999 43.8589C40.3466 43.8823 40.3264 43.9341 40.305 43.9891C40.2941 44.0131 40.2858 44.0384 40.2797 44.0643C40.0711 45.3328 38.282 56.2454 37.801 59.1917ZM34.977 62.014C33.9805 63.0006 33.393 63.5228 32.7287 63.7334C32.0736 63.9404 31.3707 63.9404 30.7156 63.7334C29.938 63.4864 29.2653 62.8153 27.9217 61.47L12.9112 46.4595L16.8318 40.3786C16.8485 40.3482 16.8712 40.3215 16.8987 40.3002C16.9403 40.2701 17.0004 40.2836 17.0507 40.3002C17.9505 40.5719 18.9166 40.5229 19.7844 40.1616C19.8295 40.145 19.8747 40.1335 19.9099 40.1652C19.9271 40.1812 19.9428 40.1991 19.9566 40.2186L34.977 62.0156V62.014ZM11.4638 45.0122L8.02062 41.569L14.8206 38.6679C14.8379 38.6602 14.8567 38.6563 14.8756 38.6564C14.9323 38.6564 14.9659 38.713 14.996 38.7648C15.0641 38.8698 15.1368 38.9722 15.2129 39.0717L15.2344 39.0986C15.2545 39.1268 15.2411 39.1552 15.2212 39.1821L11.4654 45.0122H11.4638ZM6.49646 40.0448L2.13999 35.6884C1.3992 34.9473 0.861599 34.41 0.48752 33.9476L13.7339 36.6951L13.7841 36.7034C13.8657 36.7165 13.956 36.7316 13.956 36.8084C13.956 36.8919 13.8574 36.9303 13.7739 36.962L13.7355 36.9786L6.49646 40.0448ZM-0.273438 31.7076C-0.258259 31.4269 -0.207726 31.1493 -0.123038 30.8813C0.123681 30.1034 0.794719 29.4327 2.13999 28.0871L7.71502 22.5124C10.282 26.2377 12.8559 29.9582 15.4366 33.674C15.4814 33.7338 15.5316 33.8007 15.4798 33.8506C15.2363 34.1194 14.9924 34.4132 14.8206 34.7322C14.8019 34.7732 14.7732 34.8087 14.7371 34.8356C14.7153 34.849 14.6923 34.8439 14.6667 34.8388H14.6635L-0.273438 31.706V31.7076ZM9.20717 21.0203L16.7031 13.524C17.4078 13.8328 19.9716 14.916 22.2647 15.8843C24.0007 16.6187 25.5831 17.2862 26.0804 17.5035C26.1306 17.5233 26.1758 17.5435 26.1972 17.5934C26.2106 17.6235 26.2039 17.6619 26.1972 17.6935C26.0789 18.2347 26.0967 18.7967 26.2491 19.3292C26.4014 19.8617 26.6836 20.3481 27.0702 20.7447C27.1204 20.795 27.0702 20.8663 27.027 20.9284L27.0036 20.9636L19.3924 32.7524C19.3755 32.7856 19.3508 32.8143 19.3204 32.8359C19.2804 32.8609 19.2238 32.8493 19.1771 32.8375C18.8809 32.76 18.5766 32.7185 18.2705 32.714C17.9969 32.714 17.6996 32.7642 17.3995 32.8193H17.3975C17.3643 32.8244 17.3342 32.8308 17.3076 32.8109C17.2781 32.7869 17.2527 32.7581 17.2324 32.7258L9.20717 21.0203ZM18.2174 12.01L27.9217 2.30576C29.2653 0.962084 29.938 0.289766 30.7156 0.0440067C31.3706 -0.163106 32.0736 -0.163106 32.7287 0.0440067C33.5066 0.289446 34.1793 0.962404 35.5229 2.30576L37.626 4.40879L30.7239 15.098C30.7069 15.1291 30.6837 15.1563 30.6557 15.178C30.6138 15.2068 30.5556 15.195 30.5053 15.178C29.9612 15.0129 29.385 14.9828 28.8266 15.0904C28.2682 15.198 27.7444 15.4401 27.3006 15.7956C27.2554 15.8424 27.1889 15.8158 27.1319 15.7908C26.2308 15.3985 19.2203 12.436 18.2174 12.01ZM39.0916 5.87439L45.464 12.2472L43.9287 21.7579V21.7828C43.9271 21.8046 43.9226 21.826 43.9152 21.8465C43.8986 21.8798 43.865 21.8865 43.8317 21.8964C43.5034 21.9958 43.1942 22.1499 42.9171 22.3521C42.9052 22.3606 42.8939 22.3701 42.8835 22.3806C42.8653 22.4004 42.8471 22.419 42.817 22.4222C42.7925 22.423 42.768 22.4191 42.745 22.4107L33.034 18.2846L33.0157 18.2759C32.954 18.251 32.8807 18.2209 32.8807 18.1575C32.8235 17.6164 32.6468 17.0947 32.3633 16.6302C32.3165 16.5534 32.2647 16.4734 32.3047 16.395L39.0916 5.87439ZM32.5284 20.2391L41.6317 24.0948C41.6819 24.1182 41.737 24.1396 41.7587 24.1914C41.7674 24.2225 41.7674 24.2554 41.7587 24.2865C41.7276 24.4308 41.7108 24.5779 41.7085 24.7255V24.9809C41.7085 25.0446 41.6435 25.0711 41.5834 25.0961L41.5652 25.1028C40.1229 25.7188 21.3185 33.7373 21.29 33.7373C21.2619 33.7373 21.2318 33.7373 21.2033 33.7089C21.1534 33.6589 21.2033 33.5889 21.2481 33.5252C21.2564 33.5143 21.2641 33.5031 21.2718 33.4919L28.7527 21.9079L28.7661 21.8881C28.8097 21.8177 28.8596 21.7396 28.9396 21.7396L29.0148 21.7511C29.185 21.7745 29.3354 21.7963 29.4871 21.7963C30.6221 21.7963 31.6737 21.2439 32.3079 20.299C32.3232 20.2739 32.3424 20.2514 32.3649 20.2324C32.41 20.1988 32.4765 20.2161 32.5284 20.2391ZM22.1028 35.5697L42.6 26.8286C42.6 26.8286 42.6301 26.8286 42.6583 26.8567C42.7703 26.9687 42.8653 27.0436 42.9571 27.1137L43.0023 27.1422C43.0439 27.1655 43.0858 27.1924 43.089 27.2356C43.089 27.2522 43.089 27.2625 43.0858 27.2775L41.3296 38.0634L41.3229 38.1066C41.3114 38.1901 41.2996 38.2855 41.2212 38.2855C40.753 38.3168 40.2995 38.4619 39.9002 38.7083C39.5008 38.9547 39.1677 39.2949 38.9296 39.6992L38.921 39.7124C38.8976 39.7508 38.8762 39.7876 38.8378 39.8077C38.8026 39.8244 38.7575 39.8176 38.721 39.8093L22.3751 36.4375C22.3585 36.4343 22.1211 35.5713 22.1028 35.5697Z" fill="url(#paint0_radial_116_4164)"/>
</g>
<defs>
<radialGradient id="paint0_radial_116_4164" cx="0" cy="0" r="1" gradientUnits="userSpaceOnUse" gradientTransform="translate(-2.3692 31.0126) rotate(90) scale(63.9294 73.8087)">
<stop stop-color="#20C6B7"/>
<stop offset="1" stop-color="#4D9ABF"/>
</radialGradient>
<clipPath id="clip0_116_4164">
<rect width="64" height="64" fill="white"/>
</clipPath>
</defs>
</svg>
