<svg width="65" height="64" viewBox="0 0 65 64" fill="none" xmlns="http://www.w3.org/2000/svg">
<g clip-path="url(#clip0_116_4095)">
<path d="M15.1213 9.26953C18.3933 13.9335 20.5453 19.7309 21.0333 26.1282C21.4116 30.8721 20.8014 35.6429 19.2413 40.1389C20.2228 38.9674 21.4291 38.0044 22.789 37.3069C24.1488 36.6093 25.6346 36.1913 27.1587 36.0775C27.292 36.0669 27.4227 36.0615 27.5533 36.0562C27.7667 34.7469 28.8067 26.8562 24.948 18.2429C22.1 11.8802 16.948 9.8162 15.1213 9.26953ZM19.86 9.3682C19.86 9.3682 26.276 12.2109 28.7293 24.1602C30.348 32.0402 28.86 37.0562 27.6573 39.5549C30.9312 36.4521 35.1753 34.5739 39.6733 34.2375C41.9667 34.0642 44.1933 34.2909 46.292 34.8589C46.0253 32.8829 44.7107 25.7549 39.0067 19.0722C30.3053 8.87753 19.86 9.3682 19.86 9.3682ZM59.372 35.2375L11.5853 43.3682C12.8233 43.7966 13.8901 44.6128 14.6275 45.6956C15.3649 46.7784 15.7335 48.07 15.6787 49.3789C15.6579 49.9313 15.5628 50.4785 15.396 51.0055C15.5427 50.9335 22.5667 47.6055 32.308 45.5815C40.9427 43.7869 47.5693 44.6215 49.068 44.8535C50.0105 42.6148 51.4158 40.6008 53.1916 38.9435C54.9674 37.2863 57.0736 36.0233 59.372 35.2375ZM42.804 46.1122C36.6227 46.1122 30.428 47.4322 25.1667 49.2215C17.5187 51.8242 17.2973 52.8162 10.3667 52.0029C5.47068 51.4295 0.553345 49.0295 0.553345 49.0295C0.553345 49.0295 6.96935 54.2829 13.6573 54.7015C18.9533 55.0349 23.004 52.5095 27.8307 50.9309C34.9267 48.6082 39.86 48.3442 44.5053 48.3309C52.1827 48.3095 64.5533 51.6082 64.5533 51.6082C64.5533 51.6082 58.9267 48.8242 51.132 47.0215C48.3992 46.4052 45.6054 46.0984 42.804 46.1122Z" fill="white"/>
</g>
<defs>
<clipPath id="clip0_116_4095">
<rect width="64" height="64" fill="white" transform="translate(0.553345)"/>
</clipPath>
</defs>
</svg>
