<svg width="65" height="64" viewBox="0 0 65 64" fill="none" xmlns="http://www.w3.org/2000/svg">
<g clip-path="url(#clip0_116_4112)">
<path d="M32.4124 0.0180664C16.1408 0.0180664 17.1568 7.07438 17.1568 7.07438L17.1749 14.3849H32.7025V16.5798H11.0075C11.0075 16.5798 0.595337 15.3989 0.595337 31.8168C0.595337 48.2352 9.68334 47.6529 9.68334 47.6529H15.107V40.0341C15.107 40.0341 14.8146 30.9461 24.05 30.9461H39.4506C39.4506 30.9461 48.1032 31.0859 48.1032 22.5837V8.5258C48.1032 8.5258 49.4173 0.0180664 32.4124 0.0180664ZM23.8504 4.93427C24.2174 4.93394 24.5807 5.00597 24.9198 5.14623C25.2589 5.2865 25.5669 5.49225 25.8264 5.75171C26.0859 6.01116 26.2916 6.31924 26.4319 6.6583C26.5721 6.99736 26.6442 7.36075 26.6438 7.72768C26.6442 8.09461 26.5721 8.458 26.4319 8.79707C26.2916 9.13613 26.0859 9.4442 25.8264 9.70366C25.5669 9.96312 25.2589 10.1689 24.9198 10.3091C24.5807 10.4494 24.2174 10.5214 23.8504 10.5211C23.4835 10.5214 23.1201 10.4494 22.781 10.3091C22.442 10.1689 22.1339 9.96312 21.8745 9.70366C21.615 9.4442 21.4092 9.13613 21.269 8.79707C21.1287 8.458 21.0567 8.09461 21.057 7.72768C21.0567 7.36075 21.1287 6.99736 21.269 6.6583C21.4092 6.31924 21.615 6.01116 21.8745 5.75171C22.1339 5.49225 22.442 5.2865 22.781 5.14623C23.1201 5.00597 23.4835 4.93394 23.8504 4.93427Z" fill="url(#paint0_linear_116_4112)"/>
<path d="M32.8744 63.7804C49.146 63.7804 48.13 56.7241 48.13 56.7241L48.112 49.4138H32.5841V47.219H54.2791C54.2791 47.219 64.6912 48.3999 64.6912 31.9815C64.6912 15.5633 55.6032 16.1456 55.6032 16.1456H50.1795V23.7641C50.1795 23.7641 50.4719 32.8521 41.2366 32.8521H25.8359C25.8359 32.8521 17.1834 32.7123 17.1834 41.2148V55.273C17.1834 55.273 15.8695 63.7804 32.8742 63.7804M41.4361 58.8647C41.0692 58.8651 40.7058 58.793 40.3667 58.6528C40.0277 58.5125 39.7196 58.3068 39.4602 58.0473C39.2007 57.7878 38.9949 57.4798 38.8547 57.1407C38.7144 56.8017 38.6424 56.4383 38.6427 56.0713C38.6424 55.7044 38.7144 55.341 38.8546 55.0019C38.9949 54.6628 39.2006 54.3547 39.4601 54.0952C39.7195 53.8357 40.0276 53.6299 40.3667 53.4897C40.7058 53.3494 41.0692 53.2773 41.4361 53.2777C41.8031 53.2773 42.1665 53.3494 42.5055 53.4896C42.8446 53.6299 43.1526 53.8356 43.4121 54.0951C43.6716 54.3546 43.8773 54.6626 44.0176 55.0017C44.1578 55.3408 44.2299 55.7042 44.2295 56.0711C44.2299 56.438 44.1578 56.8014 44.0176 57.1405C43.8773 57.4795 43.6716 57.7876 43.4121 58.0471C43.1526 58.3065 42.8446 58.5123 42.5055 58.6525C42.1665 58.7928 41.8031 58.8651 41.4361 58.8647Z" fill="url(#paint1_linear_116_4112)"/>
</g>
<defs>
<linearGradient id="paint0_linear_116_4112" x1="616.555" y1="573.524" x2="3792.95" y2="3718.23" gradientUnits="userSpaceOnUse">
<stop stop-color="#387EB8"/>
<stop offset="1" stop-color="#366994"/>
</linearGradient>
<linearGradient id="paint1_linear_116_4112" x1="926.34" y1="996.473" x2="4337.42" y2="4221.08" gradientUnits="userSpaceOnUse">
<stop stop-color="#FFE052"/>
<stop offset="1" stop-color="#FFC331"/>
</linearGradient>
<clipPath id="clip0_116_4112">
<rect width="64.2578" height="64" fill="white" transform="translate(0.555542)"/>
</clipPath>
</defs>
</svg>
