<svg width="73" height="64" viewBox="0 0 73 64" fill="none" xmlns="http://www.w3.org/2000/svg">
<g clip-path="url(#clip0_116_4139)">
<path d="M72.6169 31.8527C72.6169 27.0711 66.6244 22.5396 57.4369 19.7295C59.5571 10.3722 58.6148 2.92764 54.4628 0.544187C53.5057 -0.0148938 52.3867 -0.279721 51.1647 -0.279721V3.0012C51.842 3.0012 52.3867 3.13361 52.8432 3.38373C54.8456 4.53131 55.7143 8.90097 55.037 14.5212C54.875 15.9042 54.61 17.3607 54.2861 18.8467C51.4003 18.1405 48.2494 17.5961 44.9366 17.243C42.9489 14.5212 40.8876 12.0495 38.8116 9.88672C43.6115 5.42878 48.1169 2.98649 51.1794 2.98649V-0.294434C47.1304 -0.294434 41.83 2.58925 36.4706 7.59155C31.1112 2.61867 25.8107 -0.235583 21.7617 -0.235583V3.04534C24.8095 3.04534 29.3296 5.47292 34.1295 9.90143C32.0682 12.0642 30.0069 14.5212 28.0487 17.243C24.7212 17.5961 21.5703 18.1405 18.6845 18.8614C18.3459 17.3902 18.0956 15.963 17.9189 14.5948C17.2269 8.97453 18.0808 4.60488 20.0685 3.44258C20.5102 3.17775 21.0844 3.06005 21.7617 3.06005V-0.22087C20.525 -0.22087 19.406 0.043957 18.4342 0.603038C14.2969 2.98649 13.3693 10.4164 15.5042 19.7442C6.34616 22.569 0.383118 27.0858 0.383118 31.8527C0.383118 36.6343 6.37561 41.1658 15.5631 43.9759C13.4429 53.3332 14.3852 60.7778 18.5373 63.1612C19.4943 63.7203 20.6133 63.9851 21.8501 63.9851C25.8991 63.9851 31.1995 61.1014 36.5589 56.0991C41.9183 61.072 47.2188 63.9263 51.2678 63.9263C52.5045 63.9263 53.6235 63.6614 54.5953 63.1024C58.7326 60.7189 59.6602 53.289 57.5253 43.9612C66.6539 41.1511 72.6169 36.6196 72.6169 31.8527ZM53.4468 22.0394C52.9021 23.9373 52.2248 25.8941 51.4592 27.8509C50.8555 26.6738 50.2224 25.4968 49.5304 24.3198C48.8531 23.1428 48.1316 21.9952 47.4102 20.8771C49.5009 21.186 51.5181 21.5686 53.4468 22.0394ZM46.7034 37.7083C45.555 39.6945 44.3771 41.5778 43.1551 43.3286C40.9613 43.5198 38.738 43.6228 36.5 43.6228C34.2768 43.6228 32.0535 43.5198 29.8744 43.3433C28.6524 41.5925 27.4598 39.724 26.3113 37.7525C25.1923 35.8251 24.1764 33.8683 23.2488 31.8968C24.1617 29.9253 25.1923 27.9538 26.2966 26.0265C27.445 24.0403 28.6229 22.1571 29.845 20.4063C32.0388 20.215 34.262 20.112 36.5 20.112C38.7233 20.112 40.9465 20.215 43.1256 20.3915C44.3477 22.1424 45.5403 24.0109 46.6887 25.9824C47.8077 27.9097 48.8236 29.8665 49.7512 31.838C48.8236 33.8095 47.8077 35.781 46.7034 37.7083ZM51.4592 35.7957C52.2542 37.7672 52.9315 39.7387 53.491 41.6513C51.5622 42.1221 49.5304 42.5194 47.4249 42.8283C48.1464 41.6955 48.8678 40.5332 49.5451 39.3414C50.2224 38.1644 50.8555 36.9727 51.4592 35.7957ZM36.5295 51.4941C35.1602 50.0817 33.7909 48.5074 32.4363 46.786C33.7614 46.8449 35.116 46.889 36.4853 46.889C37.8693 46.889 39.2386 46.8596 40.5784 46.786C39.2533 48.5074 37.884 50.0817 36.5295 51.4941ZM25.5751 42.8283C23.4844 42.5194 21.4673 42.1368 19.5385 41.666C20.0832 39.7681 20.7605 37.8113 21.5262 35.8545C22.1298 37.0315 22.7629 38.2086 23.4549 39.3856C24.1469 40.5626 24.8537 41.7102 25.5751 42.8283ZM36.4559 12.2113C37.8251 13.6237 39.1944 15.198 40.549 16.9194C39.2239 16.8605 37.8693 16.8164 36.5 16.8164C35.116 16.8164 33.7467 16.8458 32.4069 16.9194C33.732 15.198 35.1013 13.6237 36.4559 12.2113ZM25.5604 20.8771C24.839 22.0099 24.1175 23.1722 23.4402 24.364C22.7629 25.541 22.1298 26.718 21.5262 27.895C20.7311 25.9235 20.0538 23.952 19.4943 22.0394C21.4231 21.5833 23.4549 21.186 25.5604 20.8771ZM12.2356 39.2973C7.02345 37.0757 3.65175 34.1626 3.65175 31.8527C3.65175 29.5428 7.02345 26.615 12.2356 24.4081C13.5018 23.8637 14.8858 23.3782 16.314 22.9221C17.1533 25.8058 18.2575 28.8072 19.6268 31.8821C18.2722 34.9424 17.1827 37.929 16.3582 40.798C14.9006 40.3419 13.5165 39.8417 12.2356 39.2973ZM20.1569 60.3217C18.1545 59.1741 17.2858 54.8044 17.9631 49.1842C18.125 47.8012 18.39 46.3447 18.714 44.8587C21.5998 45.5649 24.7506 46.1092 28.0634 46.4623C30.0511 49.1842 32.1124 51.6559 34.1884 53.8187C29.3885 58.2766 24.8831 60.7189 21.8206 60.7189C21.1581 60.7042 20.5986 60.5718 20.1569 60.3217ZM55.0812 49.1106C55.7732 54.7309 54.9192 59.1005 52.9315 60.2628C52.4898 60.5276 51.9156 60.6453 51.2383 60.6453C48.1905 60.6453 43.6704 58.2178 38.8705 53.7892C40.9318 51.6265 42.9931 49.1695 44.9514 46.4476C48.2789 46.0945 51.4297 45.5502 54.3155 44.8293C54.6542 46.3152 54.9192 47.7424 55.0812 49.1106ZM60.7497 39.2973C59.4835 39.8417 58.0995 40.3272 56.6713 40.7833C55.8321 37.8996 54.7278 34.8982 53.3585 31.8233C54.7131 28.763 55.8026 25.7764 56.6271 22.9074C58.0848 23.3635 59.4688 23.8637 60.7645 24.4081C65.9766 26.6297 69.3483 29.5428 69.3483 31.8527C69.3336 34.1626 65.9619 37.0904 60.7497 39.2973Z" fill="#61DAFB"/>
<path d="M36.4853 38.5768C40.2014 38.5768 43.2139 35.5665 43.2139 31.8531C43.2139 28.1397 40.2014 25.1294 36.4853 25.1294C32.7691 25.1294 29.7566 28.1397 29.7566 31.8531C29.7566 35.5665 32.7691 38.5768 36.4853 38.5768Z" fill="#61DAFB"/>
</g>
<defs>
<clipPath id="clip0_116_4139">
<rect width="72.1455" height="64" fill="white" transform="translate(0.427246)"/>
</clipPath>
</defs>
</svg>
