<svg viewBox="0 0 688 760" fill="none" xmlns="http://www.w3.org/2000/svg">
<g clip-path="url(#clip0_113_80)">
<path d="M508.167 760H41.7016C30.6455 759.988 20.0457 755.589 12.2279 747.77C4.41001 739.951 0.0124895 729.35 9.53674e-06 718.292V41.708C0.0124895 30.6502 4.41001 20.0489 12.2279 12.2298C20.0457 4.41073 30.6455 0.0124819 41.7016 0H508.167C519.223 0.0124664 529.823 4.41071 537.641 12.2298C545.458 20.0488 549.856 30.6502 549.869 41.708V718.292C549.856 729.35 545.458 739.951 537.641 747.77C529.823 755.589 519.223 759.988 508.167 760Z" fill="#121212"/>
<path d="M508.988 733.389H40.8805C37.4724 733.385 34.205 732.03 31.795 729.619C29.3851 727.209 28.0295 723.941 28.0256 720.532V39.4676C28.0295 36.0589 29.3851 32.791 31.795 30.3807C34.205 27.9704 37.4724 26.6146 40.8805 26.6107H508.988C512.396 26.6146 515.664 27.9704 518.073 30.3807C520.483 32.791 521.839 36.0589 521.843 39.4676V720.532C521.839 723.941 520.483 727.209 518.073 729.619C515.664 732.03 512.396 733.385 508.988 733.389Z" fill="white" fill-opacity="0.08"/>
<path d="M273.16 16.3212C275.12 16.3212 276.708 14.7327 276.708 12.7731C276.708 10.8136 275.12 9.22504 273.16 9.22504C271.201 9.22504 269.613 10.8136 269.613 12.7731C269.613 14.7327 271.201 16.3212 273.16 16.3212Z" fill="white"/>
<path d="M399.798 314.637L384.301 268.217L384.039 267.41L449.299 226.182L452.769 230.858L470.944 255.336L464.3 275.134L447.128 326.285L446.376 328.533L478.176 352.18C479.436 354.505 480.483 356.624 481.335 358.572C490.828 380.208 476.776 379.226 476.776 379.226L412.101 351.5L399.798 314.637Z" fill="#FFB7B7"/>
<path d="M434.036 323.278L431.185 314.733L417.192 272.785L414.277 264.04L411.829 256.722L443.739 236.557L477.089 215.494L498.734 244.648L492.174 264.196L488.985 273.694L484.056 288.386L474.166 317.845L505.966 341.492C508.372 345.712 510.272 350.202 511.625 354.867C512.178 356.814 512.44 358.832 512.403 360.856C512.455 361.892 512.287 362.927 511.909 363.893C511.531 364.86 510.953 365.734 510.212 366.46C509.471 367.187 508.585 367.747 507.612 368.105C506.638 368.463 505.6 368.611 504.565 368.538L439.891 340.812L434.036 323.278Z" fill="#FFB7B7"/>
<path opacity="0.15" d="M431.003 325.171L427.249 285.601L445.952 275.458L447.175 277.717L429.965 287.049L433.445 323.733L471.682 349.923L470.232 352.042L431.003 325.171Z" fill="black"/>
<path opacity="0.15" d="M471.798 323.846L470.272 325.911L508.86 354.426L510.386 352.361L471.798 323.846Z" fill="black"/>
<path d="M469.499 362.633L275.374 226.145L79.2666 361.361L272.449 442.949L469.499 362.633Z" fill="white"/>
<path d="M330.513 246.782L395.882 182.859L512.792 174.959L658.116 313.753L687.946 336.767L658.116 424.5L606.371 398.767C580.351 396.855 563.609 388.219 553.021 379.138C549.38 376.019 546.098 372.504 543.236 368.657C540.103 364.578 537.658 360.013 535.999 355.144L484.056 288.386L473.347 274.61L466.411 265.694L443.739 236.557L442.107 234.463L403.59 233.443L383.545 259.763L369.465 278.234C369.136 284.739 366.787 290.98 362.745 296.087C350.119 311.448 324.517 308.448 324.517 308.448L330.513 246.782Z" fill="#FFB7B7"/>
<path d="M80.0147 361.236H80.1546L160.329 395.476L270.025 442.324C270.454 442.504 270.914 442.598 271.379 442.601C271.844 442.603 272.304 442.514 272.735 442.338L385.908 395.378L468.053 361.292L468.178 361.236H468.318C469.614 361.237 470.857 361.753 471.773 362.669C472.69 363.586 473.205 364.829 473.207 366.125V578.468C473.205 579.764 472.69 581.007 471.773 581.923C470.857 582.84 469.614 583.356 468.318 583.357H80.0147C78.7186 583.356 77.476 582.84 76.5595 581.923C75.643 581.007 75.1275 579.764 75.1261 578.468V366.125C75.1275 364.829 75.643 363.586 76.5595 362.669C77.476 361.753 78.7186 361.237 80.0147 361.236Z" fill="white"/>
<path d="M79.6662 362.633C79.8088 362.633 79.9479 362.589 80.0648 362.508L273.21 227.975C273.798 227.567 274.496 227.35 275.212 227.351C275.927 227.352 276.624 227.572 277.211 227.982L468.965 362.506C469.116 362.612 469.304 362.653 469.486 362.621C469.668 362.589 469.83 362.486 469.936 362.334C470.042 362.183 470.084 361.995 470.053 361.813C470.021 361.631 469.918 361.469 469.767 361.362L278.013 226.838C277.192 226.265 276.215 225.956 275.214 225.955C274.213 225.953 273.235 226.258 272.412 226.829L79.2666 361.361C79.1446 361.446 79.0529 361.568 79.0049 361.708C78.9569 361.849 78.955 362.002 78.9996 362.143C79.0442 362.285 79.1329 362.409 79.2528 362.497C79.3727 362.585 79.5175 362.633 79.6662 362.633Z" fill="#3F3D56"/>
<path d="M458.007 367.401L275.021 231.765L90.6482 377.052L265.594 480.779L360.574 459.126L458.007 367.401Z" fill="#E6E6E6"/>
<path d="M352.557 544.847H442.956C444.075 544.847 445.149 544.403 445.941 543.612C446.734 542.821 447.179 541.748 447.181 540.629C447.183 539.509 446.74 538.435 445.95 537.642C445.16 536.848 444.088 536.401 442.969 536.398H352.557C351.437 536.398 350.364 536.842 349.572 537.633C348.779 538.424 348.333 539.497 348.332 540.616C348.33 541.736 348.773 542.81 349.563 543.603C350.353 544.396 351.425 544.844 352.544 544.847H352.557Z" fill="#BDE045"/>
<path d="M410.523 526.686H442.956C444.075 526.686 445.149 526.242 445.941 525.451C446.734 524.66 447.179 523.587 447.181 522.468C447.183 521.348 446.74 520.274 445.95 519.481C445.16 518.688 444.088 518.24 442.969 518.238H410.523C409.404 518.237 408.33 518.681 407.538 519.472C406.745 520.263 406.3 521.336 406.298 522.455C406.296 523.575 406.739 524.649 407.529 525.442C408.319 526.236 409.391 526.683 410.51 526.686H410.523Z" fill="#BDE045"/>
<path d="M272.448 442.949C273.136 442.95 273.816 442.816 274.452 442.556L387.305 395.723V249.127C387.304 247.831 386.788 246.588 385.872 245.671C384.955 244.755 383.713 244.239 382.417 244.238H165.916C164.62 244.239 163.378 244.755 162.461 245.671C161.545 246.588 161.029 247.831 161.028 249.127V395.825L161.24 395.916L270.384 442.533C271.038 442.808 271.739 442.949 272.448 442.949Z" fill="white"/>
<path d="M270.247 442.854L160.679 396.056V249.127C160.68 247.738 161.233 246.407 162.214 245.425C163.196 244.442 164.528 243.89 165.916 243.888H382.417C383.805 243.89 385.137 244.442 386.119 245.425C387.101 246.407 387.653 247.738 387.655 249.127V395.956L274.585 442.88C273.193 443.446 271.633 443.437 270.247 442.854ZM386.258 249.127C386.257 248.109 385.851 247.132 385.131 246.412C384.411 245.692 383.435 245.287 382.417 245.285H165.916C164.898 245.287 163.922 245.692 163.202 246.412C162.482 247.132 162.076 248.109 162.075 249.127V395.134L270.793 441.569C271.834 442.006 273.006 442.013 274.053 441.588L386.258 395.023L386.258 249.127Z" fill="#3F3D56"/>
<path d="M76.1738 366.125V578.468C76.1752 579.764 76.6907 581.007 77.6072 581.923C78.5237 582.84 79.7664 583.356 81.0625 583.357H469.366C470.662 583.356 471.905 582.84 472.821 581.923C473.738 581.007 474.253 579.764 474.255 578.468V366.125C474.253 364.829 473.738 363.586 472.821 362.669C471.905 361.753 470.662 361.237 469.366 361.236H469.226L469.101 361.292L386.956 395.378L273.783 442.338C273.352 442.514 272.891 442.603 272.426 442.601C271.961 442.598 271.501 442.504 271.073 442.324L161.377 395.476L81.2023 361.236H81.0625C79.7664 361.237 78.5237 361.753 77.6072 362.669C76.6907 363.586 76.1752 364.829 76.1738 366.125ZM77.5706 366.125C77.5726 365.223 77.9222 364.357 78.5465 363.707C79.1709 363.056 80.022 362.672 80.9227 362.633L161.377 396.992L270.521 443.609C271.735 444.119 273.101 444.126 274.32 443.63L386.956 396.887L469.499 362.633C470.401 362.669 471.254 363.053 471.88 363.703C472.506 364.354 472.857 365.222 472.858 366.125V578.468C472.857 579.394 472.489 580.282 471.835 580.937C471.18 581.592 470.292 581.96 469.366 581.96H81.0625C80.1365 581.96 79.2485 581.592 78.5937 580.937C77.9389 580.282 77.5709 579.394 77.5706 578.468V366.125Z" fill="#3F3D56"/>
<path d="M184.869 299.036H261.692C263.174 299.036 264.595 298.447 265.643 297.399C266.69 296.351 267.279 294.93 267.279 293.448C267.279 291.966 266.69 290.544 265.643 289.496C264.595 288.448 263.174 287.86 261.692 287.86H184.869C183.388 287.86 181.966 288.448 180.919 289.496C179.871 290.544 179.282 291.966 179.282 293.448C179.282 294.93 179.871 296.351 180.919 297.399C181.966 298.447 183.388 299.036 184.869 299.036Z" fill="#BDE045"/>
<path d="M184.915 275.287H221.93C223.412 275.287 224.833 274.698 225.881 273.65C226.928 272.602 227.517 271.181 227.517 269.699C227.517 268.217 226.928 266.796 225.881 265.748C224.833 264.7 223.412 264.111 221.93 264.111H184.915C183.434 264.111 182.012 264.7 180.965 265.748C179.917 266.796 179.328 268.217 179.328 269.699C179.328 271.181 179.917 272.602 180.965 273.65C182.012 274.698 183.434 275.287 184.915 275.287Z" fill="#BDE045"/>
<path d="M216.709 354.915H334.038C335.52 354.915 336.941 354.327 337.989 353.279C339.037 352.231 339.625 350.809 339.625 349.327C339.625 347.845 339.037 346.424 337.989 345.376C336.941 344.328 335.52 343.739 334.038 343.739H216.709C215.227 343.739 213.806 344.328 212.758 345.376C211.711 346.424 211.122 347.845 211.122 349.327C211.122 350.809 211.711 352.231 212.758 353.279C213.806 354.327 215.227 354.915 216.709 354.915Z" fill="#CCCCCC"/>
<path d="M216.709 380.76H334.038C335.52 380.76 336.941 380.171 337.989 379.123C339.037 378.075 339.625 376.654 339.625 375.172C339.625 373.69 339.037 372.268 337.989 371.22C336.941 370.172 335.52 369.584 334.038 369.584H216.709C215.227 369.584 213.806 370.172 212.758 371.22C211.711 372.268 211.122 373.69 211.122 375.172C211.122 376.654 211.711 378.075 212.758 379.123C213.806 380.171 215.227 380.76 216.709 380.76Z" fill="#CCCCCC"/>
<path opacity="0.1" d="M488.985 273.695L512.288 272.347L605.398 387.114L572.504 382.082L553.021 379.138C549.38 376.019 546.098 372.504 543.236 368.657L521.587 362.229L511.625 354.867C512.25 357.259 488.985 273.695 488.985 273.695Z" fill="black"/>
<path d="M340.026 270.042C340.694 265.75 343.033 261.896 346.533 259.323C350.032 256.749 354.407 255.665 358.703 256.308L383.545 259.763L414.278 264.04L438.028 267.342L466.411 265.694L492.173 264.196L507.394 263.318L608.6 388.065L521.587 362.229L511.625 354.867L468.007 322.645C468.007 322.645 453.715 320.012 431.185 314.733C427.833 313.937 389.907 304.418 372.091 299.241C368.64 298.236 365.544 297.184 362.745 296.087C342.882 288.267 338.908 278.243 340.026 270.042Z" fill="#FFB7B7"/>
<path opacity="0.15" d="M354.254 285.627C354.343 285.616 363.209 284.512 366.994 278.018C369.544 273.643 369.287 267.751 366.232 260.507L368.598 259.509C371.988 267.547 372.191 274.215 369.202 279.328C364.756 286.933 354.961 288.13 354.546 288.178L354.254 285.627Z" fill="black"/>
<path opacity="0.15" d="M443.909 268.285L443.903 265.718L489.552 265.645L441.427 235.552L442.788 233.373L498.48 268.197L443.909 268.285Z" fill="black"/>
</g>
<defs>
<clipPath id="clip0_113_80">
<rect width="688" height="760" fill="white"/>
</clipPath>
</defs>
</svg>
