<svg width="57" height="64" viewBox="0 0 57 64" fill="none" xmlns="http://www.w3.org/2000/svg">
<g clip-path="url(#clip0_116_4125)">
<path d="M57.0214 0.219238L51.8611 57.8625L28.6657 64.2747L5.53416 57.8715L0.379395 0.219238H57.0214Z" fill="#264DE4"/>
<path d="M47.4432 54.1919L51.853 4.93311H28.7002V59.3734L47.4432 54.1919Z" fill="#2965F1"/>
<path d="M12.1967 26.3154L12.8322 33.3862H28.7005V26.3154H12.1967Z" fill="#EBEBEB"/>
<path d="M28.7004 12.0039H28.6759H10.9196L11.5642 19.0748H28.7004V12.0039Z" fill="#EBEBEB"/>
<path d="M28.7005 52.0359V44.6793L28.6694 44.6875L20.7721 42.5612L20.2673 36.9219H16.4298H13.149L14.1425 48.0241L28.6678 52.0449L28.7005 52.0359Z" fill="#EBEBEB"/>
<path d="M37.4077 33.3862L36.5846 42.5565L28.676 44.685V52.0413L43.2129 48.0239L43.3195 46.8293L44.9858 28.2141L45.1588 26.3154L46.439 12.0039H28.676V19.0748H38.6679L38.0227 26.3154H28.676V33.3862H37.4077Z" fill="white"/>
</g>
<defs>
<clipPath id="clip0_116_4125">
<rect width="56.4364" height="64" fill="white" transform="translate(0.379395)"/>
</clipPath>
</defs>
</svg>
