<svg width="58" height="64" viewBox="0 0 58 64" fill="none" xmlns="http://www.w3.org/2000/svg">
<g clip-path="url(#clip0_116_4134)">
<path d="M6.13655 57.5266L0.924988 0.00341797L57.0697 0.025373L51.9019 57.4827L28.9535 63.9815L6.13655 57.5266ZM47.6758 54.387L52.0333 5.11903H29.0411L29.2163 59.4587L47.6758 54.387ZM26.8952 12.3424H21.3114L21.2457 41.8285L10.4065 38.8645L10.4284 45.6048L26.8952 50.0617V12.3424Z" fill="#D4B830"/>
<path d="M29.0411 5.09717H52.0333L47.6758 54.3651L29.0411 59.4368V5.09717ZM46.4933 46.1098L48.0042 27.6893L36.8366 28.9407V19.1047L48.7487 19.0608L49.2305 12.3424L31.2528 12.4303L31.4936 36.8886L42.3547 35.0224L42.2014 40.4673L31.2528 43.3874L31.3623 50.0618L46.4933 46.1098Z" fill="#FDD83C"/>
</g>
<defs>
<clipPath id="clip0_116_4134">
<rect width="56.1455" height="64" fill="white" transform="translate(0.927277)"/>
</clipPath>
</defs>
</svg>
