<svg width="65" height="64" viewBox="0 0 65 64" fill="none" xmlns="http://www.w3.org/2000/svg">
<g clip-path="url(#clip0_116_4146)">
<path fill-rule="evenodd" clip-rule="evenodd" d="M0.500001 31.9998C0.500703 26.4784 1.93005 21.0511 4.64909 16.2455C7.36812 11.44 11.2843 7.41974 16.0169 4.57567C20.7495 1.73159 26.1375 0.160458 31.6571 0.0150127C37.1766 -0.130433 42.6399 1.15476 47.5157 3.74564C52.3915 6.33653 56.514 10.1449 59.4823 14.8006C62.4507 19.4563 64.1639 24.8008 64.4554 30.3145C64.7469 35.8283 63.6067 41.3237 61.1458 46.2664C58.6849 51.2091 54.9869 55.4309 50.4115 58.5214L21.4323 17.9625C21.1692 17.5965 20.7969 17.3232 20.3688 17.1818C19.9408 17.0405 19.479 17.0384 19.0496 17.1758C18.6203 17.3133 18.2456 17.5831 17.9791 17.9468C17.7127 18.3104 17.5683 18.7491 17.5667 19.1998V51.1998H21.8333V25.8558L46.708 60.6804C41.8287 63.0982 36.413 64.2308 30.9737 63.9711C25.5343 63.7114 20.2513 62.0678 15.6245 59.1961C10.9978 56.3243 7.18039 52.3194 4.53373 47.5603C1.88708 42.8012 0.498695 37.4454 0.500001 31.9998ZM43.1667 42.6665V17.0665H47.4333V42.6665H43.1667Z" fill="white"/>
</g>
<defs>
<clipPath id="clip0_116_4146">
<rect width="64" height="64" fill="white" transform="translate(0.5)"/>
</clipPath>
</defs>
</svg>
