<svg width="122" height="64" viewBox="0 0 122 64" fill="none" xmlns="http://www.w3.org/2000/svg">
<g clip-path="url(#clip0_116_4105)">
<path d="M60.6844 63.8104C94.1979 63.8104 121.366 49.5259 121.366 31.9052C121.366 14.2844 94.1979 0 60.6844 0C27.171 0 0.00296021 14.2844 0.00296021 31.9052C0.00296021 49.5259 27.171 63.8104 60.6844 63.8104Z" fill="url(#paint0_radial_116_4105)"/>
<path d="M60.6844 61.4402C92.8888 61.4402 118.996 48.2171 118.996 31.9054C118.996 15.5938 92.8888 2.37061 60.6844 2.37061C28.4801 2.37061 2.37332 15.5938 2.37332 31.9054C2.37332 48.2171 28.4801 61.4402 60.6844 61.4402Z" fill="#6181B6"/>
<path d="M72.4889 41.4815L75.3808 26.5956C76.0445 23.2297 75.4756 20.7171 73.7689 19.1526C72.1096 17.6356 69.2652 16.8771 65.0933 16.8771H60.0682L61.4904 9.48153C61.5378 9.19708 61.4904 8.91264 61.3008 8.6756C61.1111 8.43856 60.8741 8.34375 60.5896 8.34375H53.6682C53.1941 8.34375 52.8148 8.6756 52.72 9.10227L49.6385 24.8889C49.3541 23.0875 48.6904 21.5704 47.5526 20.3378C45.5141 18.0149 42.3378 16.8297 38.0237 16.8297H24.7022C24.2282 16.8297 23.8489 17.1615 23.7541 17.5882L17.5437 49.6356C17.4963 49.9201 17.5437 50.2045 17.7333 50.4415C17.923 50.6786 18.16 50.7734 18.4445 50.7734H25.4133C25.8874 50.7734 26.2667 50.4415 26.3615 50.0149L27.8785 42.2875H33.0459C35.7482 42.2875 38.0711 42.003 39.8252 41.4341C41.6741 40.8178 43.3333 39.8223 44.803 38.4475C45.9882 37.3571 46.9837 36.1245 47.7422 34.7971L46.5096 41.1971C46.4622 41.4815 46.5096 41.766 46.6993 42.003C46.8889 42.2401 47.1259 42.3349 47.4104 42.3349H54.3319C54.8059 42.3349 55.1852 42.003 55.28 41.5763L58.6933 24.0356H63.4341C65.4726 24.0356 66.0415 24.4149 66.2311 24.6045C66.3733 24.7467 66.6578 25.3156 66.3259 27.0697L63.5763 41.2445C63.5289 41.5289 63.5763 41.8134 63.7659 42.0504C63.9556 42.2875 64.1926 42.3823 64.477 42.3823H71.5882C72.0148 42.2401 72.3941 41.9082 72.4889 41.4815ZM40.4415 29.1556C40.0148 31.3838 39.2089 32.9956 38.0237 33.8963C36.8385 34.7971 34.8948 35.2712 32.3348 35.2712H29.2533L31.4815 23.7986H35.4637C38.403 23.7986 39.5882 24.4149 40.0622 24.9363C40.6785 25.6949 40.8208 27.1645 40.4415 29.1556ZM102.071 20.3378C100.033 18.0149 96.8563 16.8297 92.5422 16.8297H79.1259C78.6519 16.8297 78.2726 17.1615 78.1778 17.5882L71.9674 49.5882C71.92 49.8726 71.9674 50.1571 72.157 50.3941C72.3467 50.6312 72.5837 50.726 72.8682 50.726H79.837C80.3111 50.726 80.6904 50.3941 80.7852 49.9675L82.3022 42.2401H87.4696C90.1719 42.2401 92.4948 41.9556 94.2489 41.3867C96.0978 40.7704 97.7571 39.7749 99.2267 38.4001C100.459 37.2623 101.502 35.9823 102.261 34.6075C103.019 33.2326 103.588 31.7156 103.92 30.0563C104.726 25.9319 104.11 22.7082 102.071 20.3378ZM94.8178 29.1556C94.3911 31.3838 93.5852 32.9956 92.4 33.8963C91.2148 34.7971 89.2711 35.2712 86.7111 35.2712H83.6296L85.8578 23.7986H89.84C92.7793 23.7986 93.9645 24.4149 94.4385 24.9363C95.1022 25.6949 95.2445 27.1645 94.8178 29.1556Z" fill="white"/>
<path d="M35.4637 22.8505C38.1185 22.8505 39.8726 23.3246 40.7733 24.3201C41.6741 25.3157 41.8637 26.975 41.3896 29.3453C40.9156 31.8105 39.9674 33.612 38.5926 34.655C37.2178 35.6979 35.1319 36.2194 32.3348 36.2194H28.1156L30.723 22.8505H35.4637ZM18.4919 49.7779H25.4607L27.12 41.292H33.0933C35.7481 41.292 37.8815 41.0076 39.5881 40.4387C41.2948 39.8698 42.8119 38.969 44.2341 37.6416C45.4193 36.5513 46.3674 35.3661 47.0785 34.0861C47.7896 32.8061 48.3111 31.3838 48.5956 29.8194C49.3541 26.0268 48.7852 23.0875 46.9363 20.9542C45.0874 18.8209 42.1481 17.7779 38.1185 17.7779H24.7022L18.4919 49.7779ZM53.7156 9.29199H60.637L58.9778 17.7779H65.1407C69.0281 17.7779 71.683 18.4416 73.1526 19.8164C74.6222 21.1913 75.0489 23.372 74.48 26.4061L71.5882 41.292H64.5719L67.3215 27.1172C67.6533 25.5053 67.5111 24.415 66.9896 23.8461C66.4682 23.2772 65.283 22.9453 63.5289 22.9453H57.9822L54.4267 41.292H47.5052L53.7156 9.29199ZM89.84 22.8505C92.4948 22.8505 94.2489 23.3246 95.1496 24.3201C96.0504 25.3157 96.24 26.975 95.7659 29.3453C95.2919 31.8105 94.3437 33.612 92.9689 34.655C91.5941 35.6979 89.5081 36.2194 86.7111 36.2194H82.4919L85.0993 22.8505H89.84ZM72.8681 49.7779H79.837L81.4963 41.292H87.4696C90.1245 41.292 92.2578 41.0076 93.9644 40.4387C95.6711 39.8698 97.1881 38.969 98.6104 37.6416C99.7956 36.5513 100.744 35.3661 101.455 34.0861C102.166 32.8061 102.687 31.3838 102.972 29.8194C103.73 26.0268 103.161 23.0875 101.313 20.9542C99.4637 18.8209 96.5245 17.7779 92.4948 17.7779H79.0785L72.8681 49.7779Z" fill="#000004"/>
</g>
<defs>
<radialGradient id="paint0_radial_116_4105" cx="0" cy="0" r="1" gradientUnits="userSpaceOnUse" gradientTransform="translate(36.4363 11.2202) scale(79.6897 79.6897)">
<stop stop-color="white"/>
<stop offset="0.5" stop-color="#4C6B97"/>
<stop offset="1" stop-color="#231F20"/>
</radialGradient>
<clipPath id="clip0_116_4105">
<rect width="121.369" height="64" fill="white"/>
</clipPath>
</defs>
</svg>
