<svg width="64" height="64" viewBox="0 0 64 64" fill="none" xmlns="http://www.w3.org/2000/svg">
<g clip-path="url(#clip0_116_4083)">
<path d="M0 22.1868C0 11.7278 0 6.49825 3.24925 3.24925C6.49825 0 11.7275 0 22.1868 0H41.8135C52.2722 0 57.5015 0 60.751 3.24925C64 6.49825 64 11.7275 64 22.1868V41.8135C64 52.2722 64 57.5015 60.7508 60.751C57.5015 64 52.2725 64 41.8133 64H22.187C11.728 64 6.4985 64 3.2495 60.7508C0 57.5015 0 52.2725 0 41.8133V22.1868Z" fill="#4945FF"/>
<path d="M44.16 19.4131H22.6133V30.3998H33.6V41.3863H44.5865V19.8398C44.5865 19.6041 44.3955 19.4131 44.16 19.4131Z" fill="white"/>
<path d="M33.1732 30.3999H33.6V30.8267H33.1732V30.3999Z" fill="white"/>
<path d="M22.6132 30.3998H33.1732C33.409 30.3998 33.6 30.5908 33.6 30.8263V41.3863H23.04C22.984 41.3864 22.9285 41.3754 22.8767 41.3539C22.8249 41.3325 22.7779 41.3011 22.7383 41.2615C22.6986 41.2219 22.6672 41.1749 22.6457 41.1231C22.6243 41.0713 22.6132 41.0159 22.6132 40.9598V30.3998ZM33.6 41.3863H44.5865L33.964 52.0088C33.8297 52.1433 33.6 52.0481 33.6 51.8583V41.3863ZM22.6132 30.3998H12.1415C11.9515 30.3998 11.8565 30.1698 11.9907 30.0356L22.6132 19.4131V30.3998Z" fill="#9593FF"/>
</g>
<defs>
<clipPath id="clip0_116_4083">
<rect width="64" height="64" fill="white"/>
</clipPath>
</defs>
</svg>
