<svg width="64" height="64" viewBox="0 0 64 64" fill="none" xmlns="http://www.w3.org/2000/svg">
<g clip-path="url(#clip0_120_103)">
<path d="M55.215 8.468C49.2765 -0.038002 37.545 -2.559 29.065 2.848L14.169 12.348C12.1532 13.6127 10.4236 15.2841 9.09087 17.2555C7.75809 19.2268 6.85146 21.4547 6.42897 23.7965C6.24059 24.8475 6.14473 25.9194 6.14297 26.9945C6.15203 29.9099 6.86617 32.7798 8.22447 35.3595C6.9511 37.2958 6.0822 39.4695 5.66997 41.75C5.24748 44.134 5.30664 46.6051 5.84247 48.956C6.37863 51.3224 7.38154 53.558 8.79247 55.532C14.7315 64.037 26.4895 66.5585 34.9425 61.152L49.8235 51.6515C51.8379 50.3852 53.5653 48.7116 54.8946 46.7382C56.2239 44.7648 57.1259 42.5351 57.5425 40.1925C57.7339 39.139 57.8296 38.0703 57.8285 36.9995C57.825 34.0897 57.1197 31.2236 55.7725 28.6445C57.0457 26.71 57.9151 24.5382 58.3285 22.2595C58.513 21.2045 58.607 20.137 58.6095 19.0665C58.6103 15.2693 57.4238 11.5669 55.216 8.4775L55.215 8.468Z" fill="#FF3E00"/>
<path d="M27.6095 56.331C26.631 56.5832 25.6332 56.7105 24.6325 56.711C22.7217 56.7107 20.8394 56.2472 19.1469 55.3601C17.4545 54.473 16.0024 53.1888 14.915 51.6175C13.587 49.759 12.8736 47.5317 12.875 45.2475C12.8759 44.6035 12.9316 43.9613 13.0415 43.331C13.131 42.8567 13.2514 42.3916 13.4015 41.94L13.682 41.086L14.442 41.664C16.2058 42.9594 18.1768 43.9457 20.271 44.581L20.823 44.7475L20.771 45.2995V45.586C20.7698 46.2766 20.9845 46.9504 21.385 47.513C21.7084 47.992 22.1441 48.3848 22.654 48.657C23.1761 48.9324 23.7399 49.0749 24.31 49.0755C24.6109 49.0767 24.911 49.0383 25.205 48.961C25.5241 48.8774 25.8324 48.7425 26.1215 48.56L41.0015 39.013C41.4477 38.7297 41.8149 38.338 42.0688 37.8744C42.3227 37.4109 42.4551 36.8905 42.4535 36.362C42.4492 35.6713 42.2289 34.9992 41.8235 34.44C41.4951 33.9672 41.0571 33.5808 40.547 33.314C40.0247 33.0444 39.4619 32.9066 38.8935 32.909C38.5926 32.9079 38.2925 32.9465 37.9985 33.024C37.6807 33.1055 37.3741 33.2403 37.0875 33.4245L31.4145 37.0495C30.4598 37.651 29.4429 38.0975 28.3905 38.3775C26.047 38.9875 23.5727 38.863 21.3022 38.021C19.0317 37.179 17.0746 35.66 15.6955 33.6695C14.3691 31.8102 13.6559 29.5834 13.6555 27.2995C13.6565 26.657 13.7125 26.016 13.822 25.383C14.0765 23.9755 14.6207 22.6363 15.4199 21.4501C16.2192 20.264 17.2561 19.2568 18.465 18.4925L33.361 8.99747C34.2956 8.40228 35.3152 7.95264 36.385 7.66397C37.3577 7.41472 38.3579 7.28873 39.362 7.28897C41.2768 7.28471 43.1641 7.74502 44.8619 8.63043C46.5598 9.51583 48.0175 10.7999 49.11 12.3725C50.4286 14.2361 51.1328 16.4646 51.1245 18.7475C51.1235 19.3933 51.0675 20.0373 50.9575 20.6695C50.8684 21.1436 50.7483 21.6085 50.5985 22.06L50.3175 22.914L49.5575 22.357C47.7949 21.0596 45.8235 20.0731 43.7285 19.44L43.1765 19.2685L43.2285 18.716V18.43C43.2284 17.7378 43.0139 17.0627 42.6145 16.4975C42.2865 16.0251 41.849 15.6391 41.3395 15.3725C40.8184 15.1029 40.2568 14.9646 39.6895 14.966C39.3913 14.9724 39.0945 15.0178 38.8045 15.1015C38.4849 15.1817 38.1766 15.3168 37.889 15.5025L22.9925 24.9975C22.6393 25.218 22.327 25.5225 22.0745 25.8925C21.8389 26.2379 21.674 26.645 21.593 27.081C21.5563 27.2621 21.5335 27.4468 21.525 27.633C21.5247 28.3219 21.7393 28.9938 22.139 29.555C22.4667 30.0274 22.904 30.4135 23.4135 30.68C23.9348 30.9496 24.4965 31.0878 25.064 31.086C25.3649 31.087 25.6651 31.0485 25.959 30.971C26.2786 30.89 26.5872 30.7552 26.8755 30.5705L32.559 26.9245C33.5134 26.3219 34.5303 25.8753 35.583 25.5965C36.5615 25.3446 37.5593 25.2172 38.56 25.2165C40.4711 25.2163 42.3539 25.679 44.0472 26.5652C45.7404 27.4514 47.1938 28.7346 48.283 30.305C49.1324 31.4952 49.7352 32.8432 50.0561 34.2698C50.377 35.6964 50.4094 37.1727 50.1515 38.612C49.8984 40.0199 49.3549 41.3598 48.5555 42.5461C47.7561 43.7324 46.7184 44.7393 45.5085 45.5025L30.6385 54.9975C29.6827 55.6018 28.6638 56.0502 27.6095 56.331Z" fill="white"/>
</g>
<defs>
<clipPath id="clip0_120_103">
<rect width="64" height="64" fill="white"/>
</clipPath>
</defs>
</svg>
